# xmcd
#
# Track frame offsets: 
#        150
#        18811
#        36404
#        52408
#        65324
#        80629
#        95888
#        115796
#        130197
#        146221
#        159285
#        185808
#        203368
#        216134
#
# Disc length: 3121 seconds
#
# Revision: 2
# Processed by: cddbd v1.5.2PL0 Copyright (c) Steve Scherf et al.
# Submitted via: ExactAudioCopy v1.0b4
#
DISCID=cd0c2f0e
DTITLE=JW Jones - Bluelisted
DYEAR=2008
DGENRE=Blues, Jump Blues
TTITLE0=Double Eyed Wammy
TTITLE1=Looking the World straight in the Eye
TTITLE2=Can't Play a Playboy
TTITLE3=Mad about you
TTITLE4=Wasted Life
TTITLE5=Somebody's Got to Burn
TTITLE6=Haevy Dosage
TTITLE7=That's Wrong Mama
TTITLE8=Waiting for you
TTITLE9=The Doctor
TTITLE10=Out of service Blues
TTITLE11=Bogart bounces again
TTITLE12=Silent Treatment
TTITLE13=Tickets on yourself
EXTD=
EXTT0=
EXTT1=
EXTT2=
EXTT3=
EXTT4=
EXTT5=
EXTT6=
EXTT7=
EXTT8=
EXTT9=
EXTT10=
EXTT11=
EXTT12=
EXTT13=
PLAYORDER=
